G04*
G04 #@! TF.GenerationSoftware,Altium Limited,Altium Designer,24.5.2 (23)*
G04*
G04 Layer_Color=65535*
%FSLAX25Y25*%
%MOIN*%
G70*
G04*
G04 #@! TF.SameCoordinates,7493800D-42FE-4D1C-9BFF-C21688B6477C*
G04*
G04*
G04 #@! TF.FilePolarity,Positive*
G04*
G01*
G75*
%ADD10C,0.00787*%
%ADD11C,0.01000*%
%ADD12R,0.05512X0.01968*%
D10*
X26378Y13386D02*
Y25984D01*
X20866D02*
X26378D01*
X20866Y13386D02*
Y25984D01*
Y13386D02*
X26378D01*
X27559Y41732D02*
Y56693D01*
X19685D02*
X27559D01*
X19685Y41732D02*
Y56693D01*
Y41732D02*
X27559D01*
X62681Y22559D02*
Y42559D01*
X39681Y22559D02*
X62681D01*
X39681D02*
Y42559D01*
X62681D01*
X39681Y37559D02*
X45681D01*
Y27559D02*
Y37559D01*
X39681Y27559D02*
X45681D01*
X5380Y8004D02*
X2756D01*
Y4068D01*
X5380D01*
X2756Y6036D02*
X4068D01*
X6692Y8004D02*
Y4068D01*
Y6036D01*
X7348Y6692D01*
X8659D01*
X9315Y6036D01*
Y4068D01*
X11283Y6692D02*
X12595D01*
X13251Y6036D01*
Y4068D01*
X11283D01*
X10627Y4724D01*
X11283Y5380D01*
X13251D01*
X14563Y4068D02*
X16531D01*
X17187Y4724D01*
X16531Y5380D01*
X15219D01*
X14563Y6036D01*
X15219Y6692D01*
X17187D01*
X19155D02*
X20467D01*
X21123Y6036D01*
Y4068D01*
X19155D01*
X18499Y4724D01*
X19155Y5380D01*
X21123D01*
X22435Y4068D02*
Y6692D01*
X24403D01*
X25058Y6036D01*
Y4068D01*
X27026Y8659D02*
Y7348D01*
X26370Y6692D01*
X28994Y4068D02*
X30962D01*
X31618Y4724D01*
X30962Y5380D01*
X29650D01*
X28994Y6036D01*
X29650Y6692D01*
X31618D01*
X36866Y8004D02*
Y4068D01*
X38833D01*
X39489Y4724D01*
Y7348D01*
X38833Y8004D01*
X36866D01*
X42769Y4068D02*
X41457D01*
X40801Y4724D01*
Y6036D01*
X41457Y6692D01*
X42769D01*
X43425Y6036D01*
Y5380D01*
X40801D01*
X44737Y4068D02*
X46705D01*
X47361Y4724D01*
X46705Y5380D01*
X45393D01*
X44737Y6036D01*
X45393Y6692D01*
X47361D01*
X48673Y4068D02*
X49985D01*
X49329D01*
Y6692D01*
X48673D01*
X53264Y2756D02*
X53921D01*
X54576Y3412D01*
Y6692D01*
X52609D01*
X51953Y6036D01*
Y4724D01*
X52609Y4068D01*
X54576D01*
X55888D02*
Y6692D01*
X57856D01*
X58512Y6036D01*
Y4068D01*
X34252Y26378D02*
X37401D01*
X34252Y37795D02*
X37401D01*
X35826Y39369D02*
Y36220D01*
D11*
X65181Y35559D02*
X67180D01*
X66181D01*
Y41557D01*
X65181Y40558D01*
X7812Y46214D02*
Y52212D01*
X10811D01*
X11811Y51212D01*
Y49213D01*
X10811Y48213D01*
X7812D01*
X9812D02*
X11811Y46214D01*
X13810D02*
X15810D01*
X14810D01*
Y52212D01*
X13810Y51212D01*
X44282Y51955D02*
X42283D01*
X43282D01*
Y46957D01*
X42283Y45957D01*
X41283D01*
X40284Y46957D01*
X46281Y45957D02*
X48281D01*
X47281D01*
Y51955D01*
X46281Y50956D01*
X9781Y22684D02*
Y16686D01*
X12780D01*
X13780Y17686D01*
Y21684D01*
X12780Y22684D01*
X9781D01*
X15779Y16686D02*
X17778D01*
X16779D01*
Y22684D01*
X15779Y21684D01*
D12*
X23622Y14370D02*
D03*
M02*
