G04*
G04 #@! TF.GenerationSoftware,Altium Limited,Altium Designer,24.5.2 (23)*
G04*
G04 Layer_Color=32896*
%FSLAX25Y25*%
%MOIN*%
G70*
G04*
G04 #@! TF.SameCoordinates,7493800D-42FE-4D1C-9BFF-C21688B6477C*
G04*
G04*
G04 #@! TF.FilePolarity,Positive*
G04*
G01*
G75*
%ADD10C,0.00787*%
%ADD11C,0.01000*%
%ADD12R,0.05512X0.01968*%
D10*
X66142Y16535D02*
X71653D01*
Y29134D01*
X66142D02*
X71653D01*
X66142Y16535D02*
Y29134D01*
X64961Y47441D02*
X72835D01*
Y62402D01*
X64961D02*
X72835D01*
X64961Y47441D02*
Y62402D01*
X55644Y8004D02*
X58268D01*
Y4068D01*
X55644D01*
X58268Y6036D02*
X56956D01*
X54332Y8004D02*
Y4068D01*
Y6036D01*
X53676Y6692D01*
X52364D01*
X51708Y6036D01*
Y4068D01*
X49740Y6692D02*
X48428D01*
X47772Y6036D01*
Y4068D01*
X49740D01*
X50396Y4724D01*
X49740Y5380D01*
X47772D01*
X46461Y4068D02*
X44493D01*
X43837Y4724D01*
X44493Y5380D01*
X45805D01*
X46461Y6036D01*
X45805Y6692D01*
X43837D01*
X41869D02*
X40557D01*
X39901Y6036D01*
Y4068D01*
X41869D01*
X42525Y4724D01*
X41869Y5380D01*
X39901D01*
X38589Y4068D02*
Y6692D01*
X36621D01*
X35965Y6036D01*
Y4068D01*
X33997Y8659D02*
Y7348D01*
X34653Y6692D01*
X32030Y4068D02*
X30062D01*
X29406Y4724D01*
X30062Y5380D01*
X31374D01*
X32030Y6036D01*
X31374Y6692D01*
X29406D01*
X24158Y8004D02*
Y4068D01*
X22190D01*
X21534Y4724D01*
Y7348D01*
X22190Y8004D01*
X24158D01*
X18254Y4068D02*
X19566D01*
X20222Y4724D01*
Y6036D01*
X19566Y6692D01*
X18254D01*
X17598Y6036D01*
Y5380D01*
X20222D01*
X16286Y4068D02*
X14319D01*
X13663Y4724D01*
X14319Y5380D01*
X15631D01*
X16286Y6036D01*
X15631Y6692D01*
X13663D01*
X12351Y4068D02*
X11039D01*
X11695D01*
Y6692D01*
X12351D01*
X7759Y2756D02*
X7103D01*
X6447Y3412D01*
Y6692D01*
X8415D01*
X9071Y6036D01*
Y4724D01*
X8415Y4068D01*
X6447D01*
X5135D02*
Y6692D01*
X3167D01*
X2511Y6036D01*
Y4068D01*
D11*
X73896Y65899D02*
Y71897D01*
X70897D01*
X69897Y70897D01*
Y68898D01*
X70897Y67898D01*
X73896D01*
X71897D02*
X69897Y65899D01*
X63899D02*
X67898D01*
X63899Y69897D01*
Y70897D01*
X64899Y71897D01*
X66898D01*
X67898Y70897D01*
X73896Y12842D02*
Y6843D01*
X70897D01*
X69897Y7843D01*
Y11842D01*
X70897Y12842D01*
X73896D01*
X63899Y6843D02*
X67898D01*
X63899Y10842D01*
Y11842D01*
X64899Y12842D01*
X66898D01*
X67898Y11842D01*
D12*
X68898Y17520D02*
D03*
M02*
