G04*
G04 #@! TF.GenerationSoftware,Altium Limited,Altium Designer,24.5.2 (23)*
G04*
G04 Layer_Physical_Order=2*
G04 Layer_Color=16711680*
%FSLAX25Y25*%
%MOIN*%
G70*
G04*
G04 #@! TF.SameCoordinates,7493800D-42FE-4D1C-9BFF-C21688B6477C*
G04*
G04*
G04 #@! TF.FilePolarity,Positive*
G04*
G01*
G75*
%ADD13R,0.02756X0.02756*%
%ADD14R,0.04724X0.03543*%
%ADD19C,0.01968*%
%ADD20R,0.07874X0.06299*%
%ADD21O,0.07874X0.06299*%
%ADD22C,0.02362*%
G36*
X57087Y42745D02*
X56299Y41890D01*
X46063D01*
Y33228D01*
X56299D01*
X57087Y32373D01*
Y29767D01*
X55505D01*
X54928Y30519D01*
X54061Y31184D01*
X53052Y31602D01*
X51968Y31745D01*
X51681D01*
Y27559D01*
Y23374D01*
X51968D01*
X53052Y23516D01*
X54061Y23934D01*
X54928Y24600D01*
X55505Y25351D01*
X57087D01*
Y1969D01*
X1969D01*
Y74803D01*
X57087D01*
Y42745D01*
D02*
G37*
%LPC*%
G36*
X50681Y31745D02*
X50394D01*
X49310Y31602D01*
X48301Y31184D01*
X47434Y30519D01*
X46769Y29652D01*
X46351Y28642D01*
X46274Y28059D01*
X50681D01*
Y31745D01*
D02*
G37*
G36*
Y27059D02*
X46274D01*
X46351Y26476D01*
X46769Y25466D01*
X47434Y24600D01*
X48301Y23934D01*
X49310Y23516D01*
X50394Y23374D01*
X50681D01*
Y27059D01*
D02*
G37*
G36*
X33965Y19870D02*
Y18216D01*
X35618D01*
X35314Y18952D01*
X34700Y19566D01*
X33965Y19870D01*
D02*
G37*
G36*
X32965D02*
X32229Y19566D01*
X31615Y18952D01*
X31311Y18216D01*
X32965D01*
Y19870D01*
D02*
G37*
G36*
X35618Y17217D02*
X33965D01*
Y15563D01*
X34700Y15868D01*
X35314Y16481D01*
X35618Y17217D01*
D02*
G37*
G36*
X32965D02*
X31311D01*
X31615Y16481D01*
X32229Y15868D01*
X32965Y15563D01*
Y17217D01*
D02*
G37*
%LPD*%
D13*
X68898Y26378D02*
D03*
Y20866D02*
D03*
D14*
Y59055D02*
D03*
Y50787D02*
D03*
D19*
Y26378D02*
Y50787D01*
X62964Y20866D02*
X68898D01*
X61024Y22807D02*
X62964Y20866D01*
X61024Y22807D02*
Y25591D01*
X51181Y27559D02*
X59055D01*
X61024Y25591D01*
X51181Y37559D02*
X57244D01*
X61024Y41339D01*
Y55118D01*
X64173Y58268D02*
X68110D01*
X61024Y55118D02*
X64173Y58268D01*
X68110D02*
X68898Y59055D01*
D20*
X51181Y37559D02*
D03*
D21*
Y27559D02*
D03*
D22*
X33465Y17717D02*
D03*
M02*
