G04*
G04 #@! TF.GenerationSoftware,Altium Limited,Altium Designer,24.5.2 (23)*
G04*
G04 Layer_Color=16711935*
%FSLAX44Y44*%
%MOMM*%
G71*
G04*
G04 #@! TF.SameCoordinates,AA1C5255-6884-4069-818B-BDD1FD2D24B8*
G04*
G04*
G04 #@! TF.FilePolarity,Negative*
G04*
G01*
G75*
%ADD44O,1.2032X1.8032*%
%ADD45C,0.8532*%
%ADD46C,1.4032*%
%ADD47R,1.4032X1.4032*%
%ADD48C,0.9000*%
%ADD49C,0.8032*%
%ADD50C,1.4732*%
D44*
X251460Y168910D02*
D03*
X166060D02*
D03*
X251460Y121610D02*
D03*
X166060D02*
D03*
X122174Y169164D02*
D03*
X36774D02*
D03*
X122174Y121864D02*
D03*
X36774D02*
D03*
D45*
X184760Y117110D02*
D03*
X232760D02*
D03*
X192760D02*
D03*
X224760D02*
D03*
X200760D02*
D03*
X216760D02*
D03*
X180760Y110110D02*
D03*
X236760D02*
D03*
X188760D02*
D03*
X228760D02*
D03*
X196760D02*
D03*
X220760D02*
D03*
X204760D02*
D03*
X212760D02*
D03*
X55474Y117364D02*
D03*
X103474D02*
D03*
X63474D02*
D03*
X95474D02*
D03*
X71474D02*
D03*
X87474D02*
D03*
X51474Y110364D02*
D03*
X107474D02*
D03*
X59474D02*
D03*
X99474D02*
D03*
X67474D02*
D03*
X91474D02*
D03*
X75474D02*
D03*
X83474D02*
D03*
D46*
X614520Y63870D02*
D03*
D47*
X594520D02*
D03*
D48*
X614680Y187670D02*
D03*
Y119670D02*
D03*
D49*
X448183Y126238D02*
D03*
X139319Y97409D02*
D03*
X9398Y113538D02*
D03*
X112522Y92456D02*
D03*
X294259Y73533D02*
D03*
X306832Y45720D02*
D03*
X338709Y46736D02*
D03*
X385572Y90424D02*
D03*
X416814Y118110D02*
D03*
X482854Y44831D02*
D03*
X616458Y82042D02*
D03*
X550799Y110109D02*
D03*
X533781D02*
D03*
X566420Y109855D02*
D03*
X550164Y92075D02*
D03*
X566928Y92456D02*
D03*
X533781Y91694D02*
D03*
X460883Y111633D02*
D03*
X461137Y91948D02*
D03*
X448056Y111506D02*
D03*
X447929Y92075D02*
D03*
X178181Y36576D02*
D03*
X266700Y80391D02*
D03*
X140843Y82296D02*
D03*
X15113Y63627D02*
D03*
X451612Y166751D02*
D03*
X451485Y152273D02*
D03*
X467995Y152527D02*
D03*
X484505Y152019D02*
D03*
X563118Y151765D02*
D03*
X529590Y152019D02*
D03*
X546608D02*
D03*
X484632Y166497D02*
D03*
X468122Y166751D02*
D03*
X563880Y167005D02*
D03*
X529336D02*
D03*
X546608D02*
D03*
D50*
X161671Y21717D02*
D03*
X161544Y91948D02*
D03*
X91059Y78486D02*
D03*
X179451Y78148D02*
D03*
X263652Y146050D02*
D03*
M02*
