G04*
G04 #@! TF.GenerationSoftware,Altium Limited,Altium Designer,24.5.2 (23)*
G04*
G04 Layer_Color=8388736*
%FSLAX44Y44*%
%MOMM*%
G71*
G04*
G04 #@! TF.SameCoordinates,AA1C5255-6884-4069-818B-BDD1FD2D24B8*
G04*
G04*
G04 #@! TF.FilePolarity,Negative*
G04*
G01*
G75*
%ADD18R,1.0065X1.4082*%
%ADD19R,1.6800X1.7000*%
%ADD20R,1.7000X1.6800*%
%ADD24R,1.4082X1.0065*%
%ADD27R,2.1062X1.1549*%
%ADD28R,1.3082X0.8065*%
%ADD29R,0.8065X1.3082*%
%ADD30R,0.7000X1.3000*%
%ADD31R,0.9500X1.4500*%
%ADD32R,1.3500X0.9500*%
%ADD33R,1.2065X1.5082*%
%ADD34R,1.6000X1.0000*%
%ADD35R,1.4500X0.9500*%
%ADD36R,1.4032X1.6532*%
%ADD37R,0.4032X1.2032*%
%ADD38R,0.5032X1.4032*%
%ADD39R,1.2532X0.8032*%
%ADD40R,1.6532X1.4032*%
%ADD41R,1.5032X1.3032*%
%ADD42O,1.5532X0.7032*%
%ADD43R,1.0532X1.5532*%
%ADD44O,1.2032X1.8032*%
%ADD45C,0.8532*%
%ADD46C,1.4032*%
%ADD47R,1.4032X1.4032*%
%ADD48C,0.9000*%
%ADD49C,0.8032*%
%ADD50C,1.4732*%
D18*
X219091Y65913D02*
D03*
X238109D02*
D03*
D19*
X262509Y66159D02*
D03*
Y30359D02*
D03*
D20*
X192539Y31496D02*
D03*
X228339D02*
D03*
D24*
X487426Y13478D02*
D03*
Y32496D02*
D03*
X145542Y160385D02*
D03*
Y141367D02*
D03*
D27*
X411353Y56911D02*
D03*
Y75423D02*
D03*
D28*
X145288Y125095D02*
D03*
Y108077D02*
D03*
D29*
X156718Y69469D02*
D03*
X139700D02*
D03*
D30*
X306857Y58420D02*
D03*
X325857D02*
D03*
X416433Y105283D02*
D03*
X397433D02*
D03*
D31*
X324329Y78232D02*
D03*
X304829D02*
D03*
X35150Y77470D02*
D03*
X15650D02*
D03*
D32*
X468376Y125215D02*
D03*
Y140215D02*
D03*
X546862Y124333D02*
D03*
Y139333D02*
D03*
D33*
X329119Y110617D02*
D03*
X308102D02*
D03*
X329119Y142367D02*
D03*
X308102D02*
D03*
D34*
X602680Y128670D02*
D03*
Y153670D02*
D03*
Y178670D02*
D03*
X626680D02*
D03*
Y153670D02*
D03*
Y128670D02*
D03*
D35*
X15240Y144370D02*
D03*
Y124870D02*
D03*
D36*
X475394Y100965D02*
D03*
X495394D02*
D03*
D37*
X208760Y143410D02*
D03*
Y174410D02*
D03*
X79474Y143664D02*
D03*
Y174664D02*
D03*
D38*
X236260Y97610D02*
D03*
X231260D02*
D03*
X226260D02*
D03*
X221260D02*
D03*
X216260D02*
D03*
X211260D02*
D03*
X206260D02*
D03*
X201260D02*
D03*
X196260D02*
D03*
X191260D02*
D03*
X186260D02*
D03*
X181260D02*
D03*
X106974Y97864D02*
D03*
X101974D02*
D03*
X96974D02*
D03*
X91974D02*
D03*
X86974D02*
D03*
X81974D02*
D03*
X76974D02*
D03*
X71974D02*
D03*
X66974D02*
D03*
X61974D02*
D03*
X56974D02*
D03*
X51974D02*
D03*
D39*
X520996Y118135D02*
D03*
Y127635D02*
D03*
Y137135D02*
D03*
X494496D02*
D03*
Y118135D02*
D03*
D40*
X522351Y12893D02*
D03*
Y32893D02*
D03*
D41*
X455930Y12614D02*
D03*
Y33614D02*
D03*
X556387Y32598D02*
D03*
Y11598D02*
D03*
D42*
X340843Y78457D02*
D03*
Y71957D02*
D03*
Y65457D02*
D03*
Y58957D02*
D03*
X385343Y78457D02*
D03*
Y71957D02*
D03*
Y65457D02*
D03*
Y58957D02*
D03*
D43*
X367035Y105283D02*
D03*
X383535D02*
D03*
X359532Y27178D02*
D03*
X343032D02*
D03*
D44*
X251460Y168910D02*
D03*
X166060D02*
D03*
X251460Y121610D02*
D03*
X166060D02*
D03*
X122174Y169164D02*
D03*
X36774D02*
D03*
X122174Y121864D02*
D03*
X36774D02*
D03*
D45*
X184760Y117110D02*
D03*
X232760D02*
D03*
X192760D02*
D03*
X224760D02*
D03*
X200760D02*
D03*
X216760D02*
D03*
X180760Y110110D02*
D03*
X236760D02*
D03*
X188760D02*
D03*
X228760D02*
D03*
X196760D02*
D03*
X220760D02*
D03*
X204760D02*
D03*
X212760D02*
D03*
X55474Y117364D02*
D03*
X103474D02*
D03*
X63474D02*
D03*
X95474D02*
D03*
X71474D02*
D03*
X87474D02*
D03*
X51474Y110364D02*
D03*
X107474D02*
D03*
X59474D02*
D03*
X99474D02*
D03*
X67474D02*
D03*
X91474D02*
D03*
X75474D02*
D03*
X83474D02*
D03*
D46*
X614520Y63870D02*
D03*
D47*
X594520D02*
D03*
D48*
X614680Y187670D02*
D03*
Y119670D02*
D03*
D49*
X448183Y126238D02*
D03*
X139319Y97409D02*
D03*
X9398Y113538D02*
D03*
X112522Y92456D02*
D03*
X294259Y73533D02*
D03*
X306832Y45720D02*
D03*
X338709Y46736D02*
D03*
X385572Y90424D02*
D03*
X416814Y118110D02*
D03*
X482854Y44831D02*
D03*
X616458Y82042D02*
D03*
X550799Y110109D02*
D03*
X533781D02*
D03*
X566420Y109855D02*
D03*
X550164Y92075D02*
D03*
X566928Y92456D02*
D03*
X533781Y91694D02*
D03*
X460883Y111633D02*
D03*
X461137Y91948D02*
D03*
X448056Y111506D02*
D03*
X447929Y92075D02*
D03*
X178181Y36576D02*
D03*
X266700Y80391D02*
D03*
X140843Y82296D02*
D03*
X15113Y63627D02*
D03*
X451612Y166751D02*
D03*
X451485Y152273D02*
D03*
X467995Y152527D02*
D03*
X484505Y152019D02*
D03*
X563118Y151765D02*
D03*
X529590Y152019D02*
D03*
X546608D02*
D03*
X484632Y166497D02*
D03*
X468122Y166751D02*
D03*
X563880Y167005D02*
D03*
X529336D02*
D03*
X546608D02*
D03*
D50*
X161671Y21717D02*
D03*
X161544Y91948D02*
D03*
X91059Y78486D02*
D03*
X179451Y78148D02*
D03*
X263652Y146050D02*
D03*
M02*
