G04*
G04 #@! TF.GenerationSoftware,Altium Limited,Altium Designer,24.5.2 (23)*
G04*
G04 Layer_Color=8421504*
%FSLAX44Y44*%
%MOMM*%
G71*
G04*
G04 #@! TF.SameCoordinates,AA1C5255-6884-4069-818B-BDD1FD2D24B8*
G04*
G04*
G04 #@! TF.FilePolarity,Positive*
G04*
G01*
G75*
%ADD15R,1.2000X1.4500*%
%ADD16R,0.2000X1.0000*%
%ADD17R,0.3000X1.2000*%
%ADD18R,1.0065X1.4082*%
%ADD19R,1.6800X1.7000*%
%ADD20R,1.7000X1.6800*%
%ADD21R,1.0500X0.6000*%
%ADD22R,1.4500X1.2000*%
%ADD23R,1.3000X1.1000*%
%ADD24R,1.4082X1.0065*%
%ADD25O,1.3500X0.5000*%
%ADD26R,0.8500X1.3500*%
%ADD27R,2.1062X1.1549*%
%ADD28R,1.3082X0.8065*%
%ADD29R,0.8065X1.3082*%
%ADD30R,0.7000X1.3000*%
%ADD31R,0.9500X1.4500*%
%ADD32R,1.3500X0.9500*%
%ADD33R,1.2065X1.5082*%
%ADD34R,1.6000X1.0000*%
%ADD35R,1.4500X0.9500*%
D15*
X475394Y100965D02*
D03*
X495394D02*
D03*
D16*
X208760Y143410D02*
D03*
Y174410D02*
D03*
X79474Y143664D02*
D03*
Y174664D02*
D03*
D17*
X236260Y97610D02*
D03*
X231260D02*
D03*
X226260D02*
D03*
X221260D02*
D03*
X216260D02*
D03*
X211260D02*
D03*
X206260D02*
D03*
X201260D02*
D03*
X196260D02*
D03*
X191260D02*
D03*
X186260D02*
D03*
X181260D02*
D03*
X106974Y97864D02*
D03*
X101974D02*
D03*
X96974D02*
D03*
X91974D02*
D03*
X86974D02*
D03*
X81974D02*
D03*
X76974D02*
D03*
X71974D02*
D03*
X66974D02*
D03*
X61974D02*
D03*
X56974D02*
D03*
X51974D02*
D03*
D18*
X219091Y65913D02*
D03*
X238109D02*
D03*
D19*
X262509Y66159D02*
D03*
Y30359D02*
D03*
D20*
X192539Y31496D02*
D03*
X228339D02*
D03*
D21*
X520996Y118135D02*
D03*
Y127635D02*
D03*
Y137135D02*
D03*
X494496D02*
D03*
Y118135D02*
D03*
D22*
X522351Y12893D02*
D03*
Y32893D02*
D03*
D23*
X455930Y12614D02*
D03*
Y33614D02*
D03*
X556387Y32598D02*
D03*
Y11598D02*
D03*
D24*
X487426Y13478D02*
D03*
Y32496D02*
D03*
X145542Y160385D02*
D03*
Y141367D02*
D03*
D25*
X340843Y78457D02*
D03*
Y71957D02*
D03*
Y65457D02*
D03*
Y58957D02*
D03*
X385343Y78457D02*
D03*
Y71957D02*
D03*
Y65457D02*
D03*
Y58957D02*
D03*
D26*
X367035Y105283D02*
D03*
X383535D02*
D03*
X359532Y27178D02*
D03*
X343032D02*
D03*
D27*
X411353Y56911D02*
D03*
Y75423D02*
D03*
D28*
X145288Y125095D02*
D03*
Y108077D02*
D03*
D29*
X156718Y69469D02*
D03*
X139700D02*
D03*
D30*
X306857Y58420D02*
D03*
X325857D02*
D03*
X416433Y105283D02*
D03*
X397433D02*
D03*
D31*
X324329Y78232D02*
D03*
X304829D02*
D03*
X35150Y77470D02*
D03*
X15650D02*
D03*
D32*
X468376Y125215D02*
D03*
Y140215D02*
D03*
X546862Y124333D02*
D03*
Y139333D02*
D03*
D33*
X329119Y110617D02*
D03*
X308102D02*
D03*
X329119Y142367D02*
D03*
X308102D02*
D03*
D34*
X602680Y128670D02*
D03*
Y153670D02*
D03*
Y178670D02*
D03*
X626680D02*
D03*
Y153670D02*
D03*
Y128670D02*
D03*
D35*
X15240Y144370D02*
D03*
Y124870D02*
D03*
M02*
