M48
;Layer_Color=9474304
;FILE_FORMAT=4:4
METRIC
;TYPE=PLATED
T01F00S00C0.3000
T02F00S00C0.4000
T04F00S00C0.7000
T05F00S00C0.7112
%
T01
X00015113Y00063627
X00009398Y00113538
X00112522Y00092456
X00139319Y00097409
X00140843Y00082296
X00178181Y00036576
X00266700Y00080391
X00294259Y00073533
X00306832Y00045720
X00338709Y00046736
X00385572Y00090424
X00416814Y00118110
X00448056Y00111506
X00460883Y00111633
X00461137Y00091948
X00447929Y00092075
X00448183Y00126238
X00451485Y00152273
X00451612Y00166751
X00468122
X00467995Y00152527
X00484505Y00152019
X00484632Y00166497
X00529336Y00167005
X00529590Y00152019
X00546608
Y00167005
X00563880
X00563118Y00151765
X00566420Y00109855
X00550799Y00110109
X00533781
Y00091694
X00550164Y00092075
X00566928Y00092456
X00616458Y00082042
X00482854Y00044831
T02
X00051474Y00110364
X00059474
X00067474
X00075474
X00083474
X00091474
X00099474
X00107474
X00103474Y00117364
X00095474
X00087474
X00071474
X00063474
X00055474
X00184760Y00117110
X00192760
X00200760
X00196760Y00110110
X00188760
X00180760
X00204760
X00212760
X00220760
X00228760
X00236760
X00232760Y00117110
X00224760
X00216760
T04
X00594520Y00063870
X00614520
T05
X00091059Y00078486
X00161544Y00091948
X00179451Y00078148
X00161671Y00021717
X00263652Y00146050
M30
