G04*
G04 #@! TF.GenerationSoftware,Altium Limited,Altium Designer,24.5.2 (23)*
G04*
G04 Layer_Physical_Order=2*
G04 Layer_Color=16711680*
%FSLAX44Y44*%
%MOMM*%
G71*
G04*
G04 #@! TF.SameCoordinates,AA1C5255-6884-4069-818B-BDD1FD2D24B8*
G04*
G04*
G04 #@! TF.FilePolarity,Positive*
G04*
G01*
G75*
%ADD13C,0.2540*%
%ADD48C,0.9000*%
%ADD51O,1.0000X1.6000*%
%ADD52C,0.6500*%
%ADD53C,1.2000*%
%ADD54R,1.2000X1.2000*%
%ADD55C,0.6000*%
%ADD56C,1.2700*%
G36*
X635254Y381D02*
X634873Y0D01*
X0D01*
Y203327D01*
X635254D01*
Y381D01*
D02*
G37*
%LPC*%
G36*
X615607Y194710D02*
X613753D01*
X611963Y194230D01*
X610357Y193303D01*
X609047Y191993D01*
X608120Y190387D01*
X607640Y188597D01*
Y186743D01*
X608120Y184953D01*
X609047Y183347D01*
X610357Y182037D01*
X611963Y181110D01*
X613753Y180630D01*
X615607D01*
X617397Y181110D01*
X619003Y182037D01*
X620313Y183347D01*
X621240Y184953D01*
X621720Y186743D01*
Y188597D01*
X621240Y190387D01*
X620313Y191993D01*
X619003Y193303D01*
X617397Y194230D01*
X615607Y194710D01*
D02*
G37*
G36*
X559712Y176580D02*
X550776D01*
X550318Y176489D01*
X549858Y176412D01*
X549824Y176390D01*
X549785Y176383D01*
X549397Y176123D01*
X549002Y175876D01*
X548978Y175843D01*
X548945Y175821D01*
X548686Y175433D01*
X548415Y175053D01*
X547948Y174017D01*
X547912Y174007D01*
X546608Y173761D01*
X545304Y174007D01*
X545267Y174017D01*
X544801Y175053D01*
X544530Y175433D01*
X544271Y175821D01*
X544238Y175843D01*
X544215Y175876D01*
X543819Y176123D01*
X543431Y176383D01*
X543391Y176390D01*
X543358Y176412D01*
X542897Y176489D01*
X542440Y176580D01*
X533504D01*
X533046Y176489D01*
X532586Y176412D01*
X532552Y176390D01*
X532513Y176383D01*
X532125Y176123D01*
X531730Y175876D01*
X531706Y175843D01*
X531673Y175821D01*
X531414Y175433D01*
X531143Y175053D01*
X530529Y173690D01*
X530447Y173332D01*
X530326Y172986D01*
X530264Y172545D01*
X528234D01*
X526198Y171702D01*
X524639Y170143D01*
X523796Y168107D01*
Y165949D01*
X522928Y165790D01*
X522587Y165654D01*
X522234Y165557D01*
X521268Y165072D01*
X520947Y164821D01*
X520607Y164596D01*
X520550Y164513D01*
X520471Y164451D01*
X520270Y164096D01*
X520042Y163759D01*
X520022Y163660D01*
X519972Y163572D01*
X519922Y163168D01*
X519841Y162768D01*
X519811Y155787D01*
X519849Y155591D01*
X519840Y155391D01*
X519945Y155099D01*
X520004Y154795D01*
X520114Y154628D01*
X520182Y154440D01*
X520391Y154211D01*
X520561Y153953D01*
X520728Y153841D01*
X520862Y153693D01*
X521142Y153561D01*
X521399Y153388D01*
X521595Y153348D01*
X521777Y153263D01*
X524050Y152698D01*
Y150917D01*
X524893Y148881D01*
X526452Y147322D01*
X528488Y146479D01*
X528641D01*
X528649Y146435D01*
Y146180D01*
X529155Y143640D01*
X529252Y143404D01*
X529302Y143154D01*
X529444Y142942D01*
X529541Y142706D01*
X529722Y142526D01*
X529863Y142314D01*
X530075Y142172D01*
X530256Y141992D01*
X530491Y141894D01*
X530704Y141752D01*
X530954Y141703D01*
X531189Y141605D01*
X531444D01*
X531694Y141555D01*
X544504D01*
X544754Y141605D01*
X545009D01*
X545244Y141703D01*
X545494Y141752D01*
X545707Y141894D01*
X545942Y141992D01*
X547274D01*
X547509Y141894D01*
X547721Y141752D01*
X547972Y141703D01*
X548207Y141605D01*
X548462D01*
X548713Y141555D01*
X560400D01*
X560650Y141605D01*
X560905D01*
X561141Y141703D01*
X561391Y141752D01*
X561966Y141992D01*
X564270D01*
X564845Y141752D01*
X565095Y141703D01*
X565331Y141605D01*
X565586D01*
X565836Y141555D01*
X571881D01*
X572872Y141752D01*
X573712Y142314D01*
X574274Y143154D01*
X574471Y144145D01*
Y165712D01*
X574391Y166112D01*
X574343Y166516D01*
X574293Y166604D01*
X574274Y166703D01*
X574047Y167042D01*
X573848Y167397D01*
X573769Y167459D01*
X573712Y167544D01*
X573374Y167770D01*
X573054Y168021D01*
X572956Y168049D01*
X572872Y168105D01*
X572473Y168184D01*
X572081Y168294D01*
X569620Y168485D01*
X569520Y168473D01*
X569420Y168493D01*
X569272Y168463D01*
X568577Y170143D01*
X567018Y171702D01*
X564982Y172545D01*
X562952D01*
X562890Y172986D01*
X562769Y173332D01*
X562687Y173690D01*
X562073Y175053D01*
X561802Y175433D01*
X561543Y175821D01*
X561510Y175843D01*
X561487Y175876D01*
X561091Y176123D01*
X560703Y176383D01*
X560663Y176390D01*
X560630Y176412D01*
X560169Y176489D01*
X559712Y176580D01*
D02*
G37*
G36*
X251460Y179515D02*
X249492Y179256D01*
X247658Y178496D01*
X246082Y177288D01*
X244874Y175713D01*
X244114Y173878D01*
X243855Y171910D01*
Y165910D01*
X244114Y163942D01*
X244655Y162635D01*
X243949Y160984D01*
X243217Y160095D01*
X174303D01*
X173571Y160984D01*
X172865Y162635D01*
X173406Y163942D01*
X173665Y165910D01*
Y171910D01*
X173406Y173878D01*
X172646Y175713D01*
X171438Y177288D01*
X169863Y178496D01*
X168028Y179256D01*
X166060Y179515D01*
X164092Y179256D01*
X162257Y178496D01*
X160682Y177288D01*
X159474Y175713D01*
X158714Y173878D01*
X158455Y171910D01*
Y165910D01*
X158714Y163942D01*
X159256Y162635D01*
X158549Y160984D01*
X157817Y160095D01*
X141779D01*
X140293Y159799D01*
X139032Y158957D01*
X111125Y131050D01*
X110283Y129789D01*
X109987Y128303D01*
Y122631D01*
X107447Y121579D01*
X106754Y122273D01*
X104626Y123154D01*
X102322D01*
X100194Y122273D01*
X99474Y121552D01*
X98754Y122273D01*
X96626Y123154D01*
X94322D01*
X92194Y122273D01*
X91474Y121552D01*
X90754Y122273D01*
X88626Y123154D01*
X86322D01*
X84194Y122273D01*
X82565Y120644D01*
X81684Y118516D01*
Y116212D01*
X81798Y115937D01*
X80194Y115273D01*
X79474Y114552D01*
X78754Y115273D01*
X77150Y115937D01*
X77264Y116212D01*
Y118516D01*
X76382Y120644D01*
X74754Y122273D01*
X72626Y123154D01*
X70322D01*
X68194Y122273D01*
X67474Y121552D01*
X66754Y122273D01*
X64626Y123154D01*
X62322D01*
X60194Y122273D01*
X59474Y121552D01*
X58754Y122273D01*
X56626Y123154D01*
X54322D01*
X52194Y122273D01*
X50566Y120644D01*
X49684Y118516D01*
Y116212D01*
X49798Y115937D01*
X48194Y115273D01*
X46565Y113644D01*
X45733Y111634D01*
X51474D01*
Y110364D01*
X52744D01*
Y104623D01*
X54754Y105456D01*
X55474Y106176D01*
X56194Y105456D01*
X58322Y104574D01*
X60626D01*
X61807Y105063D01*
X64111Y103854D01*
X64347Y103575D01*
Y101313D01*
X64643Y99827D01*
X65485Y98566D01*
X82639Y81412D01*
X82169Y79656D01*
Y77316D01*
X82775Y75055D01*
X83945Y73027D01*
X85600Y71372D01*
X87628Y70202D01*
X89889Y69596D01*
X92229D01*
X94490Y70202D01*
X96518Y71372D01*
X98173Y73027D01*
X99343Y75055D01*
X99949Y77316D01*
Y79656D01*
X99343Y81917D01*
X98173Y83945D01*
X96518Y85600D01*
X94490Y86770D01*
X92229Y87376D01*
X89889D01*
X88133Y86906D01*
X73488Y101551D01*
X73669Y104085D01*
X74322Y104574D01*
X76626D01*
X78754Y105456D01*
X79474Y106176D01*
X80194Y105456D01*
X82322Y104574D01*
X84626D01*
X86754Y105456D01*
X87474Y106176D01*
X88194Y105456D01*
X90322Y104574D01*
X90505D01*
X94013Y101065D01*
X95274Y100223D01*
X96760Y99928D01*
X109446D01*
X109951Y97388D01*
X109384Y97153D01*
X107825Y95594D01*
X107052Y93726D01*
X117992D01*
X117219Y95594D01*
X115660Y97153D01*
X113624Y97996D01*
X112565D01*
X112473Y98225D01*
X112143Y100536D01*
X112935Y101065D01*
X116773Y104903D01*
X117615Y106164D01*
X117911Y107650D01*
Y109719D01*
X120076Y111417D01*
X120451Y111486D01*
X122174Y111259D01*
X124142Y111518D01*
X125976Y112278D01*
X127552Y113486D01*
X128760Y115062D01*
X129520Y116896D01*
X129779Y118864D01*
Y124864D01*
X129520Y126832D01*
X128760Y128666D01*
X127552Y130242D01*
X126049Y131394D01*
X125974Y131465D01*
X125472Y134409D01*
X143388Y152325D01*
X224678D01*
X224928Y149785D01*
X224192Y149639D01*
X222932Y148797D01*
X207461Y133326D01*
X206619Y132066D01*
X206323Y130579D01*
Y123327D01*
X205004Y122571D01*
X203783Y122125D01*
X201912Y122900D01*
X199608D01*
X197480Y122018D01*
X196760Y121298D01*
X196040Y122018D01*
X193912Y122900D01*
X191608D01*
X189480Y122018D01*
X188760Y121298D01*
X188040Y122018D01*
X185912Y122900D01*
X183608D01*
X181480Y122018D01*
X179851Y120390D01*
X178970Y118262D01*
Y115958D01*
X179084Y115683D01*
X177480Y115019D01*
X175851Y113390D01*
X175019Y111380D01*
X180760D01*
Y110110D01*
X182030D01*
Y104369D01*
X184040Y105202D01*
X184760Y105922D01*
X185480Y105202D01*
X187608Y104320D01*
X189912D01*
X192040Y105202D01*
X192760Y105922D01*
X193480Y105202D01*
X195608Y104320D01*
X197912D01*
X200040Y105202D01*
X201822Y103400D01*
X184133Y85710D01*
X182882Y86432D01*
X180621Y87038D01*
X178281D01*
X176020Y86432D01*
X173992Y85262D01*
X172337Y83607D01*
X171167Y81579D01*
X170561Y79318D01*
Y76978D01*
X171167Y74717D01*
X172337Y72689D01*
X173992Y71034D01*
X176020Y69864D01*
X178281Y69258D01*
X180621D01*
X182882Y69864D01*
X184910Y71034D01*
X186565Y72689D01*
X187735Y74717D01*
X188341Y76978D01*
Y78931D01*
X213730Y104320D01*
X213912D01*
X216040Y105202D01*
X216760Y105922D01*
X217480Y105202D01*
X219608Y104320D01*
X221912D01*
X224040Y105202D01*
X224760Y105922D01*
X225480Y105202D01*
X227608Y104320D01*
X229912D01*
X232040Y105202D01*
X232760Y105922D01*
X233480Y105202D01*
X235490Y104369D01*
Y110110D01*
X236760D01*
Y111380D01*
X242501D01*
X241668Y113390D01*
X240040Y115019D01*
X238436Y115683D01*
X238550Y115958D01*
Y118262D01*
X237668Y120390D01*
X236040Y122018D01*
X233912Y122900D01*
X231608D01*
X229480Y122018D01*
X228760Y121298D01*
X228040Y122018D01*
X225912Y122900D01*
X223608D01*
X221480Y122018D01*
X220760Y121298D01*
X220040Y122018D01*
X217912Y122900D01*
X215608D01*
X214093Y123913D01*
Y128970D01*
X227288Y142165D01*
X255630D01*
X256538Y140591D01*
X258193Y138936D01*
X260221Y137766D01*
X262482Y137160D01*
X264822D01*
X267083Y137766D01*
X269111Y138936D01*
X270766Y140591D01*
X271936Y142619D01*
X272542Y144880D01*
Y147220D01*
X271936Y149481D01*
X271761Y149785D01*
X273227Y152325D01*
X441071D01*
X442558Y152621D01*
X443405Y153187D01*
X444850Y152752D01*
X445945Y151998D01*
Y151171D01*
X446788Y149135D01*
X448347Y147576D01*
X450383Y146733D01*
X452587D01*
X454623Y147576D01*
X456182Y149135D01*
X457025Y151171D01*
Y153375D01*
X456182Y155411D01*
X454623Y156970D01*
X453485Y157441D01*
X452321Y159794D01*
X452245Y160353D01*
X452556Y160922D01*
X453035Y161344D01*
X454750Y162054D01*
X456008Y163312D01*
X456189Y163493D01*
X456381Y163481D01*
X458594Y162524D01*
X458596Y162015D01*
X458619Y156883D01*
X458684Y156567D01*
X458702Y156245D01*
X458784Y156076D01*
X458821Y155893D01*
X459001Y155625D01*
X459142Y155335D01*
X459281Y155210D01*
X459386Y155055D01*
X459655Y154877D01*
X459896Y154663D01*
X460308Y154420D01*
X460725Y154266D01*
X460994Y154139D01*
X461230Y154080D01*
X462455Y153629D01*
Y151425D01*
X463298Y149389D01*
X464857Y147830D01*
X466893Y146987D01*
X467046D01*
X467054Y146943D01*
Y146688D01*
X467560Y144148D01*
X467657Y143912D01*
X467707Y143662D01*
X467849Y143450D01*
X467946Y143214D01*
X468127Y143034D01*
X468268Y142822D01*
X468480Y142680D01*
X468661Y142500D01*
X468896Y142402D01*
X469109Y142260D01*
X469359Y142211D01*
X469594Y142113D01*
X469849D01*
X470099Y142063D01*
X481174D01*
X481424Y142113D01*
X481679D01*
X481915Y142211D01*
X482165Y142260D01*
X482377Y142402D01*
X482613Y142500D01*
X482793Y142680D01*
X483005Y142822D01*
X483147Y143034D01*
X483327Y143214D01*
X483425Y143450D01*
X483567Y143662D01*
X483616Y143912D01*
X483714Y144148D01*
X484178Y146479D01*
X485607D01*
X487643Y147322D01*
X489202Y148881D01*
X490045Y150917D01*
Y152346D01*
X492376Y152810D01*
X492612Y152908D01*
X492862Y152957D01*
X493074Y153099D01*
X493310Y153197D01*
X493490Y153377D01*
X493702Y153519D01*
X493844Y153731D01*
X494024Y153911D01*
X494122Y154147D01*
X494264Y154359D01*
X494313Y154609D01*
X494411Y154845D01*
Y155100D01*
X494461Y155350D01*
Y162859D01*
X494411Y163110D01*
Y163365D01*
X494313Y163600D01*
X494264Y163850D01*
X494122Y164063D01*
X494024Y164298D01*
X493844Y164479D01*
X493702Y164691D01*
X493490Y164832D01*
X493310Y165013D01*
X493074Y165110D01*
X492862Y165252D01*
X492612Y165302D01*
X492376Y165399D01*
X490172Y165838D01*
Y167599D01*
X489329Y169635D01*
X487770Y171194D01*
X485734Y172037D01*
X483530D01*
X482970Y171805D01*
X482075Y173965D01*
X481513Y174805D01*
X480673Y175367D01*
X479682Y175564D01*
X473326D01*
X472335Y175367D01*
X471495Y174805D01*
X470933Y173965D01*
X470091Y171932D01*
X469224Y172291D01*
X467020D01*
X464984Y171448D01*
X463425Y169889D01*
X462582Y167853D01*
Y165754D01*
X461907Y165642D01*
X461565Y165513D01*
X461210Y165422D01*
X460062Y164870D01*
X459710Y164605D01*
X459710Y164605D01*
X459344Y164359D01*
X459344Y164359D01*
X459212Y164290D01*
X457156Y165592D01*
X457152Y165649D01*
X457152Y165816D01*
Y167853D01*
X456309Y169889D01*
X454750Y171448D01*
X452714Y172291D01*
X450510D01*
X448474Y171448D01*
X446915Y169889D01*
X446072Y167853D01*
Y166705D01*
X439462Y160095D01*
X259703D01*
X258971Y160984D01*
X258265Y162635D01*
X258806Y163942D01*
X259065Y165910D01*
Y171910D01*
X258806Y173878D01*
X258046Y175713D01*
X256838Y177288D01*
X255263Y178496D01*
X253428Y179256D01*
X251460Y179515D01*
D02*
G37*
G36*
X122174Y179769D02*
X120206Y179510D01*
X118371Y178750D01*
X116796Y177542D01*
X115588Y175966D01*
X114828Y174132D01*
X114569Y172164D01*
Y166164D01*
X114828Y164196D01*
X115588Y162362D01*
X116796Y160786D01*
X118371Y159578D01*
X120206Y158818D01*
X122174Y158559D01*
X124142Y158818D01*
X125976Y159578D01*
X127552Y160786D01*
X128760Y162362D01*
X129520Y164196D01*
X129779Y166164D01*
Y172164D01*
X129520Y174132D01*
X128760Y175966D01*
X127552Y177542D01*
X125976Y178750D01*
X124142Y179510D01*
X122174Y179769D01*
D02*
G37*
G36*
X36774D02*
X34806Y179510D01*
X32971Y178750D01*
X31396Y177542D01*
X30188Y175966D01*
X29428Y174132D01*
X29169Y172164D01*
Y166164D01*
X29428Y164196D01*
X30188Y162362D01*
X31396Y160786D01*
X32971Y159578D01*
X34806Y158818D01*
X36774Y158559D01*
X38742Y158818D01*
X40577Y159578D01*
X42152Y160786D01*
X43360Y162362D01*
X44120Y164196D01*
X44379Y166164D01*
Y172164D01*
X44120Y174132D01*
X43360Y175966D01*
X42152Y177542D01*
X40577Y178750D01*
X38742Y179510D01*
X36774Y179769D01*
D02*
G37*
G36*
X449453Y131708D02*
Y127508D01*
X453653D01*
X452880Y129376D01*
X451321Y130935D01*
X449453Y131708D01*
D02*
G37*
G36*
X446913D02*
X445045Y130935D01*
X443486Y129376D01*
X442713Y127508D01*
X446913D01*
Y131708D01*
D02*
G37*
G36*
X453653Y124968D02*
X449453D01*
Y120768D01*
X451321Y121541D01*
X452880Y123100D01*
X453653Y124968D01*
D02*
G37*
G36*
X446913D02*
X442713D01*
X443486Y123100D01*
X445045Y121541D01*
X446913Y120768D01*
Y124968D01*
D02*
G37*
G36*
X418084Y123580D02*
Y119380D01*
X422284D01*
X421511Y121248D01*
X419952Y122807D01*
X418084Y123580D01*
D02*
G37*
G36*
X415544D02*
X413676Y122807D01*
X412117Y121248D01*
X411344Y119380D01*
X415544D01*
Y123580D01*
D02*
G37*
G36*
X10668Y119008D02*
Y114808D01*
X14868D01*
X14095Y116676D01*
X12536Y118235D01*
X10668Y119008D01*
D02*
G37*
G36*
X8128D02*
X6260Y118235D01*
X4701Y116676D01*
X3928Y114808D01*
X8128D01*
Y119008D01*
D02*
G37*
G36*
X459613Y117103D02*
X457745Y116330D01*
X456186Y114771D01*
X455818Y113881D01*
X453069D01*
X452753Y114644D01*
X451194Y116203D01*
X449326Y116976D01*
Y111506D01*
Y106036D01*
X451194Y106809D01*
X452753Y108368D01*
X453121Y109258D01*
X455870D01*
X456186Y108495D01*
X457745Y106936D01*
X459613Y106163D01*
Y111633D01*
Y117103D01*
D02*
G37*
G36*
X462153D02*
Y112903D01*
X466353D01*
X465580Y114771D01*
X464021Y116330D01*
X462153Y117103D01*
D02*
G37*
G36*
X446786Y116976D02*
X444918Y116203D01*
X443359Y114644D01*
X442586Y112776D01*
X446786D01*
Y116976D01*
D02*
G37*
G36*
X422284Y116840D02*
X418084D01*
Y112640D01*
X419952Y113413D01*
X421511Y114972D01*
X422284Y116840D01*
D02*
G37*
G36*
X415544D02*
X411344D01*
X412117Y114972D01*
X413676Y113413D01*
X415544Y112640D01*
Y116840D01*
D02*
G37*
G36*
X615607Y126710D02*
X613753D01*
X611963Y126230D01*
X610357Y125303D01*
X609047Y123993D01*
X608120Y122387D01*
X607640Y120597D01*
Y118743D01*
X608120Y116953D01*
X609047Y115347D01*
X610357Y114037D01*
X611963Y113110D01*
X613753Y112630D01*
X615607D01*
X617397Y113110D01*
X619003Y114037D01*
X620313Y115347D01*
X621240Y116953D01*
X621720Y118743D01*
Y120597D01*
X621240Y122387D01*
X620313Y123993D01*
X619003Y125303D01*
X617397Y126230D01*
X615607Y126710D01*
D02*
G37*
G36*
X552069Y115579D02*
Y111379D01*
X556269D01*
X555496Y113247D01*
X553937Y114806D01*
X552069Y115579D01*
D02*
G37*
G36*
X549529D02*
X547661Y114806D01*
X546102Y113247D01*
X545329Y111379D01*
X549529D01*
Y115579D01*
D02*
G37*
G36*
X535051D02*
Y111379D01*
X539251D01*
X538478Y113247D01*
X536919Y114806D01*
X535051Y115579D01*
D02*
G37*
G36*
X532511D02*
X530643Y114806D01*
X529084Y113247D01*
X528311Y111379D01*
X532511D01*
Y115579D01*
D02*
G37*
G36*
X36774Y132469D02*
X34806Y132210D01*
X32971Y131450D01*
X31396Y130242D01*
X30188Y128666D01*
X29428Y126832D01*
X29169Y124864D01*
Y118864D01*
X29428Y116896D01*
X30188Y115062D01*
X31396Y113486D01*
X32971Y112278D01*
X34806Y111518D01*
X36774Y111259D01*
X38742Y111518D01*
X40577Y112278D01*
X42152Y113486D01*
X43360Y115062D01*
X44120Y116896D01*
X44379Y118864D01*
Y124864D01*
X44120Y126832D01*
X43360Y128666D01*
X42152Y130242D01*
X40577Y131450D01*
X38742Y132210D01*
X36774Y132469D01*
D02*
G37*
G36*
X567690Y115325D02*
Y111125D01*
X571890D01*
X571117Y112993D01*
X569558Y114552D01*
X567690Y115325D01*
D02*
G37*
G36*
X565150D02*
X563282Y114552D01*
X561723Y112993D01*
X560950Y111125D01*
X565150D01*
Y115325D01*
D02*
G37*
G36*
X251460Y132215D02*
X249492Y131956D01*
X247658Y131196D01*
X246082Y129988D01*
X244874Y128413D01*
X244114Y126578D01*
X243855Y124610D01*
Y118610D01*
X244114Y116642D01*
X244874Y114808D01*
X246082Y113232D01*
X247658Y112024D01*
X249492Y111264D01*
X251460Y111005D01*
X253428Y111264D01*
X255263Y112024D01*
X256838Y113232D01*
X258046Y114808D01*
X258806Y116642D01*
X259065Y118610D01*
Y124610D01*
X258806Y126578D01*
X258046Y128413D01*
X256838Y129988D01*
X255263Y131196D01*
X253428Y131956D01*
X251460Y132215D01*
D02*
G37*
G36*
X166060D02*
X164092Y131956D01*
X162257Y131196D01*
X160682Y129988D01*
X159474Y128413D01*
X158714Y126578D01*
X158455Y124610D01*
Y118610D01*
X158714Y116642D01*
X159474Y114808D01*
X160682Y113232D01*
X162257Y112024D01*
X164092Y111264D01*
X166060Y111005D01*
X168028Y111264D01*
X169863Y112024D01*
X171438Y113232D01*
X172646Y114808D01*
X173406Y116642D01*
X173665Y118610D01*
Y124610D01*
X173406Y126578D01*
X172646Y128413D01*
X171438Y129988D01*
X169863Y131196D01*
X168028Y131956D01*
X166060Y132215D01*
D02*
G37*
G36*
X14868Y112268D02*
X10668D01*
Y108068D01*
X12536Y108841D01*
X14095Y110400D01*
X14868Y112268D01*
D02*
G37*
G36*
X8128D02*
X3928D01*
X4701Y110400D01*
X6260Y108841D01*
X8128Y108068D01*
Y112268D01*
D02*
G37*
G36*
X466353Y110363D02*
X462153D01*
Y106163D01*
X464021Y106936D01*
X465580Y108495D01*
X466353Y110363D01*
D02*
G37*
G36*
X446786Y110236D02*
X442586D01*
X443359Y108368D01*
X444918Y106809D01*
X446786Y106036D01*
Y110236D01*
D02*
G37*
G36*
X556269Y108839D02*
X552069D01*
Y104639D01*
X553937Y105412D01*
X555496Y106971D01*
X556269Y108839D01*
D02*
G37*
G36*
X549529D02*
X545329D01*
X546102Y106971D01*
X547661Y105412D01*
X549529Y104639D01*
Y108839D01*
D02*
G37*
G36*
X539251D02*
X535051D01*
Y104639D01*
X536919Y105412D01*
X538478Y106971D01*
X539251Y108839D01*
D02*
G37*
G36*
X532511D02*
X528311D01*
X529084Y106971D01*
X530643Y105412D01*
X532511Y104639D01*
Y108839D01*
D02*
G37*
G36*
X50204Y109094D02*
X45733D01*
X46565Y107084D01*
X48194Y105456D01*
X50204Y104623D01*
Y109094D01*
D02*
G37*
G36*
X571890Y108585D02*
X567690D01*
Y104385D01*
X569558Y105158D01*
X571117Y106717D01*
X571890Y108585D01*
D02*
G37*
G36*
X565150D02*
X560950D01*
X561723Y106717D01*
X563282Y105158D01*
X565150Y104385D01*
Y108585D01*
D02*
G37*
G36*
X242501Y108840D02*
X238030D01*
Y104369D01*
X240040Y105202D01*
X241668Y106830D01*
X242501Y108840D01*
D02*
G37*
G36*
X179490D02*
X175019D01*
X175851Y106830D01*
X177480Y105202D01*
X179490Y104369D01*
Y108840D01*
D02*
G37*
G36*
X140589Y102879D02*
Y98679D01*
X144789D01*
X144016Y100547D01*
X142457Y102106D01*
X140589Y102879D01*
D02*
G37*
G36*
X138049D02*
X136181Y102106D01*
X134622Y100547D01*
X133849Y98679D01*
X138049D01*
Y102879D01*
D02*
G37*
G36*
X568198Y97926D02*
Y93726D01*
X572398D01*
X571625Y95594D01*
X570066Y97153D01*
X568198Y97926D01*
D02*
G37*
G36*
X565658D02*
X563790Y97153D01*
X562231Y95594D01*
X561458Y93726D01*
X565658D01*
Y97926D01*
D02*
G37*
G36*
X551434Y97545D02*
Y93345D01*
X555634D01*
X554861Y95213D01*
X553302Y96772D01*
X551434Y97545D01*
D02*
G37*
G36*
X548894D02*
X547026Y96772D01*
X545467Y95213D01*
X544694Y93345D01*
X548894D01*
Y97545D01*
D02*
G37*
G36*
X446659D02*
X444791Y96772D01*
X443232Y95213D01*
X442459Y93345D01*
X446659D01*
Y97545D01*
D02*
G37*
G36*
X462407Y97418D02*
Y93218D01*
X466607D01*
X465834Y95086D01*
X464275Y96645D01*
X462407Y97418D01*
D02*
G37*
G36*
X535051Y97164D02*
Y92964D01*
X539251D01*
X538478Y94832D01*
X536919Y96391D01*
X535051Y97164D01*
D02*
G37*
G36*
X532511D02*
X530643Y96391D01*
X529084Y94832D01*
X528311Y92964D01*
X532511D01*
Y97164D01*
D02*
G37*
G36*
X144789Y96139D02*
X140589D01*
Y91939D01*
X142457Y92712D01*
X144016Y94271D01*
X144789Y96139D01*
D02*
G37*
G36*
X138049D02*
X133849D01*
X134622Y94271D01*
X136181Y92712D01*
X138049Y91939D01*
Y96139D01*
D02*
G37*
G36*
X386842Y95894D02*
Y91694D01*
X391042D01*
X390269Y93562D01*
X388710Y95121D01*
X386842Y95894D01*
D02*
G37*
G36*
X384302D02*
X382434Y95121D01*
X380875Y93562D01*
X380102Y91694D01*
X384302D01*
Y95894D01*
D02*
G37*
G36*
X117992Y91186D02*
X113792D01*
Y86986D01*
X115660Y87759D01*
X117219Y89318D01*
X117992Y91186D01*
D02*
G37*
G36*
X111252D02*
X107052D01*
X107825Y89318D01*
X109384Y87759D01*
X111252Y86986D01*
Y91186D01*
D02*
G37*
G36*
X572398D02*
X568198D01*
Y86986D01*
X570066Y87759D01*
X571625Y89318D01*
X572398Y91186D01*
D02*
G37*
G36*
X565658D02*
X561458D01*
X562231Y89318D01*
X563790Y87759D01*
X565658Y86986D01*
Y91186D01*
D02*
G37*
G36*
X555634Y90805D02*
X551434D01*
Y86605D01*
X553302Y87378D01*
X554861Y88937D01*
X555634Y90805D01*
D02*
G37*
G36*
X548894D02*
X544694D01*
X545467Y88937D01*
X547026Y87378D01*
X548894Y86605D01*
Y90805D01*
D02*
G37*
G36*
X446659D02*
X442459D01*
X443232Y88937D01*
X444791Y87378D01*
X446659Y86605D01*
Y90805D01*
D02*
G37*
G36*
X466607Y90678D02*
X462407D01*
Y86478D01*
X464275Y87251D01*
X465834Y88810D01*
X466607Y90678D01*
D02*
G37*
G36*
X449199Y97545D02*
Y92075D01*
Y86605D01*
X451067Y87378D01*
X452626Y88937D01*
X453237Y90412D01*
X453381Y90439D01*
X455816Y90318D01*
X456440Y88810D01*
X457999Y87251D01*
X459867Y86478D01*
Y91948D01*
Y97418D01*
X457999Y96645D01*
X456440Y95086D01*
X455829Y93611D01*
X455685Y93584D01*
X453250Y93705D01*
X452626Y95213D01*
X451067Y96772D01*
X449199Y97545D01*
D02*
G37*
G36*
X539251Y90424D02*
X535051D01*
Y86224D01*
X536919Y86997D01*
X538478Y88556D01*
X539251Y90424D01*
D02*
G37*
G36*
X532511D02*
X528311D01*
X529084Y88556D01*
X530643Y86997D01*
X532511Y86224D01*
Y90424D01*
D02*
G37*
G36*
X391042Y89154D02*
X386842D01*
Y84954D01*
X388710Y85727D01*
X390269Y87286D01*
X391042Y89154D01*
D02*
G37*
G36*
X384302D02*
X380102D01*
X380875Y87286D01*
X382434Y85727D01*
X384302Y84954D01*
Y89154D01*
D02*
G37*
G36*
X142113Y87766D02*
Y83566D01*
X146313D01*
X145540Y85434D01*
X143981Y86993D01*
X142113Y87766D01*
D02*
G37*
G36*
X139573D02*
X137705Y86993D01*
X136146Y85434D01*
X135373Y83566D01*
X139573D01*
Y87766D01*
D02*
G37*
G36*
X617728Y87512D02*
Y83312D01*
X621928D01*
X621155Y85180D01*
X619596Y86739D01*
X617728Y87512D01*
D02*
G37*
G36*
X615188D02*
X613320Y86739D01*
X611761Y85180D01*
X610988Y83312D01*
X615188D01*
Y87512D01*
D02*
G37*
G36*
X267970Y85861D02*
Y81661D01*
X272170D01*
X271397Y83529D01*
X269838Y85088D01*
X267970Y85861D01*
D02*
G37*
G36*
X265430D02*
X263562Y85088D01*
X262003Y83529D01*
X261230Y81661D01*
X265430D01*
Y85861D01*
D02*
G37*
G36*
X146313Y81026D02*
X142113D01*
Y76826D01*
X143981Y77599D01*
X145540Y79158D01*
X146313Y81026D01*
D02*
G37*
G36*
X139573D02*
X135373D01*
X136146Y79158D01*
X137705Y77599D01*
X139573Y76826D01*
Y81026D01*
D02*
G37*
G36*
X621928Y80772D02*
X617728D01*
Y76572D01*
X619596Y77345D01*
X621155Y78904D01*
X621928Y80772D01*
D02*
G37*
G36*
X615188D02*
X610988D01*
X611761Y78904D01*
X613320Y77345D01*
X615188Y76572D01*
Y80772D01*
D02*
G37*
G36*
X272170Y79121D02*
X267970D01*
Y74921D01*
X269838Y75694D01*
X271397Y77253D01*
X272170Y79121D01*
D02*
G37*
G36*
X265430D02*
X261230D01*
X262003Y77253D01*
X263562Y75694D01*
X265430Y74921D01*
Y79121D01*
D02*
G37*
G36*
X295529Y79003D02*
Y74803D01*
X299729D01*
X298956Y76671D01*
X297397Y78230D01*
X295529Y79003D01*
D02*
G37*
G36*
X292989D02*
X291121Y78230D01*
X289562Y76671D01*
X288789Y74803D01*
X292989D01*
Y79003D01*
D02*
G37*
G36*
X299729Y72263D02*
X295529D01*
Y68063D01*
X297397Y68836D01*
X298956Y70395D01*
X299729Y72263D01*
D02*
G37*
G36*
X292989D02*
X288789D01*
X289562Y70395D01*
X291121Y68836D01*
X292989Y68063D01*
Y72263D01*
D02*
G37*
G36*
X615790Y72371D02*
Y65140D01*
X623021D01*
X622478Y67166D01*
X621354Y69114D01*
X619764Y70704D01*
X617816Y71828D01*
X615790Y72371D01*
D02*
G37*
G36*
X613250D02*
X611224Y71828D01*
X609276Y70704D01*
X607686Y69114D01*
X606562Y67166D01*
X606019Y65140D01*
X613250D01*
Y72371D01*
D02*
G37*
G36*
X16383Y69097D02*
Y64897D01*
X20583D01*
X19810Y66765D01*
X18251Y68324D01*
X16383Y69097D01*
D02*
G37*
G36*
X13843D02*
X11975Y68324D01*
X10416Y66765D01*
X9643Y64897D01*
X13843D01*
Y69097D01*
D02*
G37*
G36*
X20583Y62357D02*
X16383D01*
Y58157D01*
X18251Y58930D01*
X19810Y60489D01*
X20583Y62357D01*
D02*
G37*
G36*
X13843D02*
X9643D01*
X10416Y60489D01*
X11975Y58930D01*
X13843Y58157D01*
Y62357D01*
D02*
G37*
G36*
X623021Y62600D02*
X615790D01*
Y55369D01*
X617816Y55912D01*
X619764Y57036D01*
X621354Y58626D01*
X622478Y60574D01*
X623021Y62600D01*
D02*
G37*
G36*
X613250D02*
X606019D01*
X606562Y60574D01*
X607686Y58626D01*
X609276Y57036D01*
X611224Y55912D01*
X613250Y55369D01*
Y62600D01*
D02*
G37*
G36*
X603060Y72410D02*
X585980D01*
Y55330D01*
X603060D01*
Y72410D01*
D02*
G37*
G36*
X339979Y52206D02*
Y48006D01*
X344179D01*
X343406Y49874D01*
X341847Y51433D01*
X339979Y52206D01*
D02*
G37*
G36*
X337439D02*
X335571Y51433D01*
X334012Y49874D01*
X333239Y48006D01*
X337439D01*
Y52206D01*
D02*
G37*
G36*
X308102Y51190D02*
Y46990D01*
X312302D01*
X311529Y48858D01*
X309970Y50417D01*
X308102Y51190D01*
D02*
G37*
G36*
X305562D02*
X303694Y50417D01*
X302135Y48858D01*
X301362Y46990D01*
X305562D01*
Y51190D01*
D02*
G37*
G36*
X484124Y50301D02*
Y46101D01*
X488324D01*
X487551Y47969D01*
X485992Y49528D01*
X484124Y50301D01*
D02*
G37*
G36*
X481584D02*
X479716Y49528D01*
X478157Y47969D01*
X477384Y46101D01*
X481584D01*
Y50301D01*
D02*
G37*
G36*
X344179Y45466D02*
X339979D01*
Y41266D01*
X341847Y42039D01*
X343406Y43598D01*
X344179Y45466D01*
D02*
G37*
G36*
X337439D02*
X333239D01*
X334012Y43598D01*
X335571Y42039D01*
X337439Y41266D01*
Y45466D01*
D02*
G37*
G36*
X312302Y44450D02*
X308102D01*
Y40250D01*
X309970Y41023D01*
X311529Y42582D01*
X312302Y44450D01*
D02*
G37*
G36*
X305562D02*
X301362D01*
X302135Y42582D01*
X303694Y41023D01*
X305562Y40250D01*
Y44450D01*
D02*
G37*
G36*
X488324Y43561D02*
X484124D01*
Y39361D01*
X485992Y40134D01*
X487551Y41693D01*
X488324Y43561D01*
D02*
G37*
G36*
X481584D02*
X477384D01*
X478157Y41693D01*
X479716Y40134D01*
X481584Y39361D01*
Y43561D01*
D02*
G37*
G36*
X179451Y42046D02*
Y37846D01*
X183651D01*
X182878Y39714D01*
X181319Y41273D01*
X179451Y42046D01*
D02*
G37*
G36*
X176911D02*
X175043Y41273D01*
X173484Y39714D01*
X172711Y37846D01*
X176911D01*
Y42046D01*
D02*
G37*
G36*
X183651Y35306D02*
X179451D01*
Y31106D01*
X181319Y31879D01*
X182878Y33438D01*
X183651Y35306D01*
D02*
G37*
G36*
X176911D02*
X172711D01*
X173484Y33438D01*
X175043Y31879D01*
X176911Y31106D01*
Y35306D01*
D02*
G37*
G36*
X162714Y100838D02*
X160374D01*
X158113Y100232D01*
X156085Y99062D01*
X154430Y97407D01*
X153260Y95379D01*
X152654Y93118D01*
Y90778D01*
X153260Y88517D01*
X154430Y86489D01*
X156085Y84834D01*
X157659Y83926D01*
Y29666D01*
X156212Y28831D01*
X154557Y27176D01*
X153387Y25148D01*
X152781Y22887D01*
Y20547D01*
X153387Y18286D01*
X154557Y16258D01*
X156212Y14603D01*
X158240Y13433D01*
X160501Y12827D01*
X162841D01*
X165102Y13433D01*
X167130Y14603D01*
X168785Y16258D01*
X169955Y18286D01*
X170561Y20547D01*
Y22887D01*
X169955Y25148D01*
X168785Y27176D01*
X167130Y28831D01*
X165429Y29813D01*
Y83926D01*
X167003Y84834D01*
X168658Y86489D01*
X169828Y88517D01*
X170434Y90778D01*
Y93118D01*
X169828Y95379D01*
X168658Y97407D01*
X167003Y99062D01*
X164975Y100232D01*
X162714Y100838D01*
D02*
G37*
%LPD*%
G36*
X560325Y172626D02*
X560490Y171450D01*
X559183Y170143D01*
X558410Y168275D01*
X563880D01*
Y167005D01*
X565150D01*
Y161535D01*
X567018Y162308D01*
X568577Y163867D01*
X569420Y165903D01*
X571881Y165712D01*
Y144145D01*
X565836D01*
X565331Y146685D01*
X566256Y147068D01*
X567815Y148627D01*
X568588Y150495D01*
X557648D01*
X558421Y148627D01*
X559980Y147068D01*
X560905Y146685D01*
X560400Y144145D01*
X548713D01*
X548207Y146685D01*
X549746Y147322D01*
X551305Y148881D01*
X552078Y150749D01*
X541138D01*
X541911Y148881D01*
X543470Y147322D01*
X545009Y146685D01*
X544504Y144145D01*
X531694D01*
X531189Y146685D01*
X532728Y147322D01*
X534287Y148881D01*
X535060Y150749D01*
X529590D01*
Y152019D01*
X528320D01*
Y157489D01*
X526452Y156716D01*
X524938Y155202D01*
X524688Y155208D01*
X522401Y155776D01*
X522430Y162757D01*
X523396Y163243D01*
X524973Y163533D01*
X526198Y162308D01*
X528066Y161535D01*
Y167005D01*
X529336D01*
Y168275D01*
X534806D01*
X534033Y170143D01*
X532726Y171450D01*
X532891Y172626D01*
X533504Y173990D01*
X542440D01*
X543053Y172626D01*
X543218Y171450D01*
X541911Y170143D01*
X541138Y168275D01*
X552078D01*
X551305Y170143D01*
X549998Y171450D01*
X550163Y172626D01*
X550776Y173990D01*
X559712D01*
X560325Y172626D01*
D02*
G37*
%LPC*%
G36*
X562610Y165735D02*
X558410D01*
X559183Y163867D01*
X560742Y162308D01*
X562610Y161535D01*
Y165735D01*
D02*
G37*
G36*
X552078D02*
X547878D01*
Y161535D01*
X549746Y162308D01*
X551305Y163867D01*
X552078Y165735D01*
D02*
G37*
G36*
X545338D02*
X541138D01*
X541911Y163867D01*
X543470Y162308D01*
X545338Y161535D01*
Y165735D01*
D02*
G37*
G36*
X534806D02*
X530606D01*
Y161535D01*
X532474Y162308D01*
X534033Y163867D01*
X534806Y165735D01*
D02*
G37*
G36*
X547878Y157489D02*
Y153289D01*
X552078D01*
X551305Y155157D01*
X549746Y156716D01*
X547878Y157489D01*
D02*
G37*
G36*
X545338D02*
X543470Y156716D01*
X541911Y155157D01*
X541138Y153289D01*
X545338D01*
Y157489D01*
D02*
G37*
G36*
X530860D02*
Y153289D01*
X535060D01*
X534287Y155157D01*
X532728Y156716D01*
X530860Y157489D01*
D02*
G37*
G36*
X564388Y157235D02*
Y153035D01*
X568588D01*
X567815Y154903D01*
X566256Y156462D01*
X564388Y157235D01*
D02*
G37*
G36*
X561848D02*
X559980Y156462D01*
X558421Y154903D01*
X557648Y153035D01*
X561848D01*
Y157235D01*
D02*
G37*
%LPD*%
G36*
X480734Y170434D02*
X479935Y169635D01*
X479162Y167767D01*
X484632D01*
Y166497D01*
X485902D01*
Y161027D01*
X487770Y161800D01*
X489329Y163359D01*
X489331Y163365D01*
X491871Y162859D01*
Y155350D01*
X489331Y154845D01*
X489202Y155157D01*
X487643Y156716D01*
X485775Y157489D01*
Y152019D01*
X484505D01*
Y150749D01*
X479035D01*
X479808Y148881D01*
X481367Y147322D01*
X481679Y147193D01*
X481174Y144653D01*
X470099D01*
X469594Y147193D01*
X471133Y147830D01*
X472692Y149389D01*
X473465Y151257D01*
X467995D01*
Y152527D01*
X466725D01*
Y157997D01*
X464857Y157224D01*
X463753Y156119D01*
X461622Y156652D01*
X461209Y156895D01*
X461184Y162536D01*
X462332Y163087D01*
X463720Y163318D01*
X464984Y162054D01*
X466852Y161281D01*
Y166751D01*
X468122D01*
Y168021D01*
X473592D01*
X472819Y169889D01*
X472274Y170434D01*
X473326Y172974D01*
X479682D01*
X480734Y170434D01*
D02*
G37*
%LPC*%
G36*
X473592Y165481D02*
X469392D01*
Y161281D01*
X471260Y162054D01*
X472819Y163613D01*
X473592Y165481D01*
D02*
G37*
G36*
X483362Y165227D02*
X479162D01*
X479935Y163359D01*
X481494Y161800D01*
X483362Y161027D01*
Y165227D01*
D02*
G37*
G36*
X469265Y157997D02*
Y153797D01*
X473465D01*
X472692Y155665D01*
X471133Y157224D01*
X469265Y157997D01*
D02*
G37*
G36*
X483235Y157489D02*
X481367Y156716D01*
X479808Y155157D01*
X479035Y153289D01*
X483235D01*
Y157489D01*
D02*
G37*
%LPD*%
D13*
X161671Y21717D02*
Y24130D01*
X161544Y24257D02*
X161671Y24130D01*
X161544Y24257D02*
Y91948D01*
X183037Y79121D02*
X211312Y107396D01*
X212760Y110110D02*
Y111182D01*
X180424Y79121D02*
X183037D01*
X179451Y78148D02*
X180424Y79121D01*
X212760Y109038D02*
Y110110D01*
X68232Y101313D02*
X91059Y78486D01*
X67474Y110364D02*
X68232Y109606D01*
Y101313D02*
Y109606D01*
X91474Y109292D02*
Y110364D01*
X92922Y107650D02*
Y107844D01*
Y107650D02*
X96760Y103812D01*
X91474Y109292D02*
X92922Y107844D01*
X96760Y103812D02*
X110188D01*
X114026Y107650D01*
Y115271D01*
X113872Y115425D02*
X114026Y115271D01*
X113872Y115425D02*
Y128303D01*
X141779Y156210D01*
X441071D01*
X451612Y166751D01*
X225679Y146050D02*
X263652D01*
X210208Y130579D02*
X225679Y146050D01*
X211312Y107591D02*
X212760Y109038D01*
X211312Y107396D02*
Y107591D01*
X210208Y113928D02*
Y130579D01*
X211312Y112630D02*
X212760Y111182D01*
X211312Y112630D02*
Y112824D01*
X210208Y113928D02*
X211312Y112824D01*
D48*
X614680Y187670D02*
D03*
Y119670D02*
D03*
D51*
X251460Y168910D02*
D03*
X166060D02*
D03*
X251460Y121610D02*
D03*
X166060D02*
D03*
X122174Y169164D02*
D03*
X36774D02*
D03*
X122174Y121864D02*
D03*
X36774D02*
D03*
D52*
X184760Y117110D02*
D03*
X232760D02*
D03*
X192760D02*
D03*
X224760D02*
D03*
X200760D02*
D03*
X216760D02*
D03*
X180760Y110110D02*
D03*
X236760D02*
D03*
X188760D02*
D03*
X228760D02*
D03*
X196760D02*
D03*
X220760D02*
D03*
X204760D02*
D03*
X212760D02*
D03*
X55474Y117364D02*
D03*
X103474D02*
D03*
X63474D02*
D03*
X95474D02*
D03*
X71474D02*
D03*
X87474D02*
D03*
X51474Y110364D02*
D03*
X107474D02*
D03*
X59474D02*
D03*
X99474D02*
D03*
X67474D02*
D03*
X91474D02*
D03*
X75474D02*
D03*
X83474D02*
D03*
D53*
X614520Y63870D02*
D03*
D54*
X594520D02*
D03*
D55*
X448183Y126238D02*
D03*
X139319Y97409D02*
D03*
X9398Y113538D02*
D03*
X112522Y92456D02*
D03*
X294259Y73533D02*
D03*
X306832Y45720D02*
D03*
X338709Y46736D02*
D03*
X385572Y90424D02*
D03*
X416814Y118110D02*
D03*
X482854Y44831D02*
D03*
X616458Y82042D02*
D03*
X550799Y110109D02*
D03*
X533781D02*
D03*
X566420Y109855D02*
D03*
X550164Y92075D02*
D03*
X566928Y92456D02*
D03*
X533781Y91694D02*
D03*
X460883Y111633D02*
D03*
X461137Y91948D02*
D03*
X448056Y111506D02*
D03*
X447929Y92075D02*
D03*
X178181Y36576D02*
D03*
X266700Y80391D02*
D03*
X140843Y82296D02*
D03*
X15113Y63627D02*
D03*
X451612Y166751D02*
D03*
X451485Y152273D02*
D03*
X467995Y152527D02*
D03*
X484505Y152019D02*
D03*
X563118Y151765D02*
D03*
X529590Y152019D02*
D03*
X546608D02*
D03*
X484632Y166497D02*
D03*
X468122Y166751D02*
D03*
X563880Y167005D02*
D03*
X529336D02*
D03*
X546608D02*
D03*
D56*
X161671Y21717D02*
D03*
X161544Y91948D02*
D03*
X91059Y78486D02*
D03*
X179451Y78148D02*
D03*
X263652Y146050D02*
D03*
M02*
