G04*
G04 #@! TF.GenerationSoftware,Altium Limited,Altium Designer,24.5.2 (23)*
G04*
G04 Layer_Color=65535*
%FSLAX44Y44*%
%MOMM*%
G71*
G04*
G04 #@! TF.SameCoordinates,0E2BD98C-4056-40A6-9899-F4A7F4FAA76F*
G04*
G04*
G04 #@! TF.FilePolarity,Positive*
G04*
G01*
G75*
%ADD10C,0.2500*%
%ADD11C,0.2000*%
%ADD12C,0.1500*%
D10*
X1520650Y1080770D02*
G03*
X1520650Y1080770I-1250J0D01*
G01*
D11*
X1452400Y1031520D02*
X1519400D01*
X1452400D02*
Y1066520D01*
X1519400D01*
Y1031520D02*
Y1066520D01*
D12*
X1415000Y1025000D02*
Y1080400D01*
X1385000D02*
X1415000D01*
X1385000Y1025000D02*
Y1080400D01*
Y1025000D02*
X1415000D01*
X1585000D02*
Y1080400D01*
X1555000D02*
X1585000D01*
X1555000Y1025000D02*
Y1080400D01*
Y1025000D02*
X1585000D01*
X1398815Y1017693D02*
X1392150D01*
Y1012694D01*
X1395482Y1014361D01*
X1397148D01*
X1398815Y1012694D01*
Y1009362D01*
X1397148Y1007696D01*
X1393816D01*
X1392150Y1009362D01*
X1402147Y1017693D02*
Y1011028D01*
X1405479Y1007696D01*
X1408811Y1011028D01*
Y1017693D01*
X1392150Y1002097D02*
X1395482D01*
X1393816D01*
Y992100D01*
X1392150D01*
X1395482D01*
X1400481D02*
Y998764D01*
X1405479D01*
X1407145Y997098D01*
Y992100D01*
X1557250Y1016027D02*
X1558916Y1017693D01*
X1562248D01*
X1563914Y1016027D01*
Y1014361D01*
X1562248Y1012694D01*
X1560582D01*
X1562248D01*
X1563914Y1011028D01*
Y1009362D01*
X1562248Y1007696D01*
X1558916D01*
X1557250Y1009362D01*
X1567247Y1017693D02*
Y1011028D01*
X1570579Y1007696D01*
X1573911Y1011028D01*
Y1017693D01*
X1577243Y1016027D02*
X1578910Y1017693D01*
X1582242D01*
X1583908Y1016027D01*
Y1014361D01*
X1582242Y1012694D01*
X1580576D01*
X1582242D01*
X1583908Y1011028D01*
Y1009362D01*
X1582242Y1007696D01*
X1578910D01*
X1577243Y1009362D01*
X1562248Y1002097D02*
X1558916D01*
X1557250Y1000431D01*
Y993766D01*
X1558916Y992100D01*
X1562248D01*
X1563914Y993766D01*
Y1000431D01*
X1562248Y1002097D01*
X1567247Y998764D02*
Y993766D01*
X1568913Y992100D01*
X1573911D01*
Y998764D01*
X1578910Y1000431D02*
Y998764D01*
X1577243D01*
X1580576D01*
X1578910D01*
Y993766D01*
X1580576Y992100D01*
X1480506Y998138D02*
Y989808D01*
X1482172Y988142D01*
X1485504D01*
X1487170Y989808D01*
Y998138D01*
X1490502Y988142D02*
X1493835D01*
X1492168D01*
Y998138D01*
X1490502Y996472D01*
X1378990Y1066570D02*
X1372325D01*
X1378990Y1037838D02*
X1372325D01*
X1375658Y1034505D02*
Y1041170D01*
X1597430Y1036568D02*
X1590766D01*
X1594098Y1033235D02*
Y1039900D01*
X1597430Y1065300D02*
X1590766D01*
X1399540Y1097198D02*
X1396208D01*
X1397874D01*
Y1088868D01*
X1396208Y1087202D01*
X1394542D01*
X1392876Y1088868D01*
X1402872Y1087202D02*
X1406205D01*
X1404538D01*
Y1097198D01*
X1402872Y1095532D01*
X1536334Y1044832D02*
X1534668Y1046498D01*
X1531335D01*
X1529669Y1044832D01*
Y1038168D01*
X1531335Y1036502D01*
X1534668D01*
X1536334Y1038168D01*
X1546331Y1036502D02*
X1539666D01*
X1546331Y1043166D01*
Y1044832D01*
X1544664Y1046498D01*
X1541332D01*
X1539666Y1044832D01*
X1432560Y1045090D02*
X1430894Y1046756D01*
X1427562D01*
X1425896Y1045090D01*
Y1038425D01*
X1427562Y1036759D01*
X1430894D01*
X1432560Y1038425D01*
X1435892Y1036759D02*
X1439225D01*
X1437558D01*
Y1046756D01*
X1435892Y1045090D01*
X1568054Y1097198D02*
X1564722D01*
X1566388D01*
Y1088868D01*
X1564722Y1087202D01*
X1563056D01*
X1561389Y1088868D01*
X1578051Y1087202D02*
X1571386D01*
X1578051Y1093866D01*
Y1095532D01*
X1576384Y1097198D01*
X1573052D01*
X1571386Y1095532D01*
M02*
