G04*
G04 #@! TF.GenerationSoftware,Altium Limited,Altium Designer,24.5.2 (23)*
G04*
G04 Layer_Physical_Order=2*
G04 Layer_Color=16711680*
%FSLAX44Y44*%
%MOMM*%
G71*
G04*
G04 #@! TF.SameCoordinates,0E2BD98C-4056-40A6-9899-F4A7F4FAA76F*
G04*
G04*
G04 #@! TF.FilePolarity,Positive*
G04*
G01*
G75*
%ADD23C,1.8000*%
%ADD24R,1.8000X1.8000*%
%ADD25C,0.6000*%
G36*
X1605000Y955000D02*
X1365000D01*
Y1145000D01*
X1605000D01*
Y955000D01*
D02*
G37*
%LPC*%
G36*
X1510270Y1105470D02*
Y1101270D01*
X1514470D01*
X1513697Y1103138D01*
X1512138Y1104697D01*
X1510270Y1105470D01*
D02*
G37*
G36*
X1507730D02*
X1505862Y1104697D01*
X1504303Y1103138D01*
X1503530Y1101270D01*
X1507730D01*
Y1105470D01*
D02*
G37*
G36*
X1514470Y1098730D02*
X1510270D01*
Y1094530D01*
X1512138Y1095303D01*
X1513697Y1096862D01*
X1514470Y1098730D01*
D02*
G37*
G36*
X1507730D02*
X1503530D01*
X1504303Y1096862D01*
X1505862Y1095303D01*
X1507730Y1094530D01*
Y1098730D01*
D02*
G37*
G36*
X1539270Y1095470D02*
Y1091270D01*
X1543470D01*
X1542697Y1093138D01*
X1541138Y1094697D01*
X1539270Y1095470D01*
D02*
G37*
G36*
X1536730D02*
X1534862Y1094697D01*
X1533303Y1093138D01*
X1532530Y1091270D01*
X1536730D01*
Y1095470D01*
D02*
G37*
G36*
X1434270Y1094470D02*
Y1090270D01*
X1438470D01*
X1437697Y1092138D01*
X1436138Y1093697D01*
X1434270Y1094470D01*
D02*
G37*
G36*
X1431730D02*
X1429862Y1093697D01*
X1428303Y1092138D01*
X1427530Y1090270D01*
X1431730D01*
Y1094470D01*
D02*
G37*
G36*
X1543470Y1088730D02*
X1539270D01*
Y1084530D01*
X1541138Y1085303D01*
X1542697Y1086862D01*
X1543470Y1088730D01*
D02*
G37*
G36*
X1536730D02*
X1532530D01*
X1533303Y1086862D01*
X1534862Y1085303D01*
X1536730Y1084530D01*
Y1088730D01*
D02*
G37*
G36*
X1438470Y1087730D02*
X1434270D01*
Y1083530D01*
X1436138Y1084303D01*
X1437697Y1085862D01*
X1438470Y1087730D01*
D02*
G37*
G36*
X1431730D02*
X1427530D01*
X1428303Y1085862D01*
X1429862Y1084303D01*
X1431730Y1083530D01*
Y1087730D01*
D02*
G37*
G36*
X1401519Y1076940D02*
X1401270D01*
Y1066670D01*
X1411540D01*
Y1066919D01*
X1410753Y1069854D01*
X1409234Y1072486D01*
X1407086Y1074634D01*
X1404454Y1076154D01*
X1401519Y1076940D01*
D02*
G37*
G36*
X1571519D02*
X1571270D01*
Y1066670D01*
X1581540D01*
Y1066919D01*
X1580754Y1069854D01*
X1579234Y1072486D01*
X1577086Y1074634D01*
X1574454Y1076154D01*
X1571519Y1076940D01*
D02*
G37*
G36*
X1568730D02*
X1568481D01*
X1565546Y1076154D01*
X1562914Y1074634D01*
X1560766Y1072486D01*
X1559247Y1069854D01*
X1558460Y1066919D01*
Y1066670D01*
X1568730D01*
Y1076940D01*
D02*
G37*
G36*
X1398730D02*
X1398481D01*
X1395546Y1076154D01*
X1392914Y1074634D01*
X1390766Y1072486D01*
X1389246Y1069854D01*
X1388460Y1066919D01*
Y1066670D01*
X1398730D01*
Y1076940D01*
D02*
G37*
G36*
X1570000Y1065400D02*
D01*
Y1064130D01*
X1558460D01*
Y1063881D01*
X1559247Y1060946D01*
X1560766Y1058314D01*
X1562914Y1056166D01*
X1565546Y1054647D01*
X1567660Y1054080D01*
X1567325Y1051540D01*
X1558460D01*
Y1028460D01*
X1581540D01*
Y1051540D01*
X1572675D01*
X1572340Y1054080D01*
X1574454Y1054647D01*
X1577086Y1056166D01*
X1579234Y1058314D01*
X1580754Y1060946D01*
X1581540Y1063881D01*
Y1064130D01*
X1570000D01*
Y1065400D01*
D02*
G37*
G36*
X1411540Y1064130D02*
X1400000D01*
X1388460D01*
Y1063881D01*
X1389246Y1060946D01*
X1390766Y1058314D01*
X1392914Y1056166D01*
X1395546Y1054647D01*
X1397660Y1054080D01*
X1397325Y1051540D01*
X1388460D01*
Y1028460D01*
X1411540D01*
Y1051540D01*
X1402675D01*
X1402340Y1054080D01*
X1404454Y1054647D01*
X1407086Y1056166D01*
X1409234Y1058314D01*
X1410753Y1060946D01*
X1411540Y1063881D01*
Y1064130D01*
D02*
G37*
%LPD*%
D23*
X1400000Y1065400D02*
D03*
X1570000D02*
D03*
D24*
X1400000Y1040000D02*
D03*
X1570000D02*
D03*
D25*
X1433000Y1089000D02*
D03*
X1509000Y1100000D02*
D03*
X1538000Y1090000D02*
D03*
M02*
