G04*
G04 #@! TF.GenerationSoftware,Altium Limited,Altium Designer,24.5.2 (23)*
G04*
G04 Layer_Physical_Order=1*
G04 Layer_Color=255*
%FSLAX44Y44*%
%MOMM*%
G71*
G04*
G04 #@! TF.SameCoordinates,0E2BD98C-4056-40A6-9899-F4A7F4FAA76F*
G04*
G04*
G04 #@! TF.FilePolarity,Positive*
G04*
G01*
G75*
%ADD19R,1.3000X0.9000*%
G04:AMPARAMS|DCode=20|XSize=1mm|YSize=2.05mm|CornerRadius=0.25mm|HoleSize=0mm|Usage=FLASHONLY|Rotation=0.000|XOffset=0mm|YOffset=0mm|HoleType=Round|Shape=RoundedRectangle|*
%AMROUNDEDRECTD20*
21,1,1.0000,1.5500,0,0,0.0*
21,1,0.5000,2.0500,0,0,0.0*
1,1,0.5000,0.2500,-0.7750*
1,1,0.5000,-0.2500,-0.7750*
1,1,0.5000,-0.2500,0.7750*
1,1,0.5000,0.2500,0.7750*
%
%ADD20ROUNDEDRECTD20*%
G04:AMPARAMS|DCode=21|XSize=3.25mm|YSize=2.05mm|CornerRadius=0.5125mm|HoleSize=0mm|Usage=FLASHONLY|Rotation=0.000|XOffset=0mm|YOffset=0mm|HoleType=Round|Shape=RoundedRectangle|*
%AMROUNDEDRECTD21*
21,1,3.2500,1.0250,0,0,0.0*
21,1,2.2250,2.0500,0,0,0.0*
1,1,1.0250,1.1125,-0.5125*
1,1,1.0250,-1.1125,-0.5125*
1,1,1.0250,-1.1125,0.5125*
1,1,1.0250,1.1125,0.5125*
%
%ADD21ROUNDEDRECTD21*%
%ADD22C,0.3000*%
%ADD23C,1.8000*%
%ADD24R,1.8000X1.8000*%
%ADD25C,0.6000*%
D19*
X1432560Y1057300D02*
D03*
Y1076300D02*
D03*
X1537970Y1076420D02*
D03*
Y1057420D02*
D03*
D20*
X1508900Y1080770D02*
D03*
X1485900D02*
D03*
X1462900D02*
D03*
D21*
X1485900Y1017270D02*
D03*
D22*
X1410192Y1074300D02*
X1432560D01*
Y1076300D02*
X1433000Y1076740D01*
Y1089000D01*
X1538000Y1076450D02*
Y1090000D01*
X1537970Y1076420D02*
X1538000Y1076450D01*
X1508950Y1099950D02*
X1509000Y1100000D01*
X1508900Y1080770D02*
X1508950Y1080820D01*
Y1099950D01*
X1531620Y1017270D02*
X1567180D01*
X1485900D02*
X1531620D01*
X1532890Y1018540D01*
Y1026160D01*
X1537970Y1031240D01*
X1485900Y1017270D02*
Y1080770D01*
X1569870Y1065530D02*
X1570000Y1065400D01*
X1537970Y1031240D02*
Y1059420D01*
X1569720Y1019810D02*
Y1039720D01*
X1570000Y1040000D01*
X1567180Y1017270D02*
X1569720Y1019810D01*
X1449070Y1080770D02*
X1462900D01*
X1446530Y1078230D02*
X1449070Y1080770D01*
X1446530Y1063477D02*
Y1078230D01*
X1434980Y1061720D02*
X1444773D01*
X1446530Y1063477D01*
X1432560Y1059300D02*
X1434980Y1061720D01*
X1432560Y1059300D02*
X1432560Y1059300D01*
X1432560Y1041757D02*
Y1059300D01*
X1400000Y1040000D02*
X1430803D01*
X1432560Y1041757D01*
X1401292Y1065400D02*
X1410192Y1074300D01*
X1400000Y1065400D02*
X1401292D01*
D23*
X1400000D02*
D03*
X1570000D02*
D03*
D24*
X1400000Y1040000D02*
D03*
X1570000D02*
D03*
D25*
X1433000Y1089000D02*
D03*
X1509000Y1100000D02*
D03*
X1538000Y1090000D02*
D03*
M02*
